Adsworth-72PT G0 XT.ufo
<glyph name="quotedbl" format="2">
  <advance width="714"/>
  <unicode hex="0022"/>
  <outline>
    <contour>
      <point x="210" y="962" type="line"/>
      <point x="210" y="1500" type="line"/>
      <point x="190" y="1500" type="line"/>
      <point x="190" y="962" type="line"/>
    </contour>
    <contour>
      <point x="524" y="962" type="line"/>
      <point x="524" y="1500" type="line"/>
      <point x="504" y="1500" type="line"/>
      <point x="504" y="962" type="line"/>
    </contour>
  </outline>
</glyph>
<glyph name="numbersign" format="2">
  <advance width="1082"/>
  <unicode hex="0023"/>
  <outline>
    <contour>
      <point x="226" y="0" type="line"/>
      <point x="426" y="1500" type="line"/>
      <point x="391" y="1500" type="line"/>
      <point x="191" y="0" type="line"/>
    </contour>
    <contour>
      <point x="1026" y="550" type="line"/>
      <point x="-14" y="550" type="line"/>
      <point x="-14" y="520" type="line"/>
      <point x="1026" y="520" type="line"/>
    </contour>
    <contour>
      <point x="1076" y="965" type="line"/>
      <point x="36" y="965" type="line"/>
      <point x="36" y="935" type="line"/>
      <point x="1076" y="935" type="line"/>
    </contour>
    <contour>
      <point x="686" y="0" type="line"/>
      <point x="886" y="1500" type="line"/>
      <point x="851" y="1500" type="line"/>
      <point x="651" y="0" type="line"/>
    </contour>
  </outline>
</glyph>
<glyph name="dollar" format="2">
  <advance width="1160"/>
  <unicode hex="0024"/>
  <outline>
    <contour>
      <point x="1087.0" y="396.0" type="line" smooth="yes"/>
      <point x="1087.0" y="563.0"/>
      <point x="799" y="751"/>
      <point x="577" y="828" type="qcurve" smooth="yes"/>
      <point x="369" y="902"/>
      <point x="128" y="1074"/>
      <point x="128" y="1215" type="qcurve" smooth="yes"/>
      <point x="128" y="1223" type="line" smooth="yes"/>
      <point x="128" y="1369.0"/>
      <point x="357.0" y="1514.0"/>
      <point x="558" y="1514.0" type="qcurve" smooth="yes"/>
      <point x="569" y="1514.0" type="line" smooth="yes"/>
      <point x="793" y="1514"/>
      <point x="1019.0" y="1339.0"/>
      <point x="1019" y="1134.0" type="qcurve" smooth="yes"/>
      <point x="1019" y="1115.0" type="line"/>
      <point x="1043.0" y="1115.0" type="line"/>
      <point x="1043.0" y="1139" type="line" smooth="yes"/>
      <point x="1043.0" y="1344"/>
      <point x="800" y="1528"/>
      <point x="574.0" y="1528" type="qcurve" smooth="yes"/>
      <point x="557.0" y="1528" type="line" smooth="yes"/>
      <point x="350.0" y="1528.0"/>
      <point x="109.0" y="1371.0"/>
      <point x="109.0" y="1205" type="qcurve" smooth="yes"/>
      <point x="109.0" y="1189" type="line" smooth="yes"/>
      <point x="109" y="1049"/>
      <point x="357" y="879"/>
      <point x="579" y="810" type="qcurve" smooth="yes"/>
      <point x="788" y="745"/>
      <point x="1062.0" y="550.0"/>
      <point x="1062.0" y="378.0" type="qcurve" smooth="yes"/>
      <point x="1062.0" y="381.0" type="line" smooth="yes"/>
      <point x="1062.0" y="208.0"/>
      <point x="813" y="-18.0"/>
      <point x="586" y="-18.0" type="qcurve" smooth="yes"/>
      <point x="582" y="-18.0" type="line" smooth="yes"/>
      <point x="331.0" y="-18"/>
      <point x="94" y="211.0"/>
      <point x="94" y="386.0" type="qcurve" smooth="yes"/>
      <point x="94" y="434.0" type="line"/>
      <point x="57.0" y="434.0" type="line"/>
      <point x="57.0" y="375" type="line" smooth="yes"/>
      <point x="57.0" y="203.0"/>
      <point x="304" y="-42"/>
      <point x="578.0" y="-42" type="qcurve" smooth="yes"/>
      <point x="588.0" y="-42" type="line" smooth="yes"/>
      <point x="837.0" y="-42.0"/>
      <point x="1087.0" y="232.0"/>
      <point x="1087.0" y="388" type="qcurve" smooth="yes"/>
    </contour>
    <contour>
      <point x="605.0" y="-100.0" type="line"/>
      <point x="605.0" y="803.0" type="line"/>
      <point x="570.0" y="803.0" type="line"/>
      <point x="570.0" y="-100.0" type="line"/>
    </contour>
    <contour>
      <point x="595.0" y="812.0" type="line"/>
      <point x="595.0" y="1593.0" type="line"/>
      <point x="560.0" y="1593.0" type="line"/>
      <point x="560.0" y="812.0" type="line"/>
    </contour>
  </outline>
</glyph>
<glyph name="percent" format="2">
  <advance width="1733"/>
  <unicode hex="0025"/>
  <outline>
    <contour>
      <point x="426" y="691.0" type="line" smooth="yes"/>
      <point x="280" y="691.0"/>
      <point x="117" y="902.0"/>
      <point x="117" y="1088.0" type="qcurve" smooth="yes"/>
      <point x="117" y="1114.0" type="line" smooth="yes"/>
      <point x="117" y="1300.0"/>
      <point x="288" y="1520.0"/>
      <point x="424" y="1520.0" type="qcurve" smooth="yes"/>
      <point x="428" y="1520.0" type="line" smooth="yes"/>
      <point x="577" y="1520.0"/>
      <point x="745" y="1300.0"/>
      <point x="745" y="1114.0" type="qcurve" smooth="yes"/>
      <point x="745" y="1088.0" type="line" smooth="yes"/>
      <point x="745" y="902.0"/>
      <point x="573" y="691.0"/>
      <point x="431" y="691.0" type="qcurve" smooth="yes"/>
    </contour>
    <contour>
      <point x="427.0" y="675" type="line" smooth="yes"/>
      <point x="587.0" y="675"/>
      <point x="769.0" y="897"/>
      <point x="769.0" y="1085" type="qcurve" smooth="yes"/>
      <point x="769.0" y="1115" type="line" smooth="yes"/>
      <point x="769.0" y="1305"/>
      <point x="591.0" y="1536"/>
      <point x="427.0" y="1536" type="qcurve" smooth="yes"/>
      <point x="421.0" y="1536" type="line" smooth="yes"/>
      <point x="267.0" y="1536"/>
      <point x="91.0" y="1305"/>
      <point x="91.0" y="1115" type="qcurve" smooth="yes"/>
      <point x="91.0" y="1085" type="line" smooth="yes"/>
      <point x="91.0" y="897"/>
      <point x="262.0" y="675"/>
      <point x="421.0" y="675" type="qcurve" smooth="yes"/>
    </contour>
    <contour>
      <point x="1300" y="-19.0" type="line" smooth="yes"/>
      <point x="1154" y="-19.0"/>
      <point x="991" y="192.0"/>
      <point x="991" y="378.0" type="qcurve" smooth="yes"/>
      <point x="991" y="404.0" type="line" smooth="yes"/>
      <point x="991" y="590.0"/>
      <point x="1162" y="810.0"/>
      <point x="1298" y="810.0" type="qcurve" smooth="yes"/>
      <point x="1302" y="810.0" type="line" smooth="yes"/>
      <point x="1451" y="810.0"/>
      <point x="1619" y="590.0"/>
      <point x="1619" y="404.0" type="qcurve" smooth="yes"/>
      <point x="1619" y="378.0" type="line" smooth="yes"/>
      <point x="1619" y="192.0"/>
      <point x="1447" y="-19.0"/>
      <point x="1305" y="-19.0" type="qcurve" smooth="yes"/>
    </contour>
    <contour>
      <point x="1301.0" y="-35" type="line" smooth="yes"/>
      <point x="1461.0" y="-35"/>
      <point x="1643.0" y="187"/>
      <point x="1643.0" y="375" type="qcurve" smooth="yes"/>
      <point x="1643.0" y="405" type="line" smooth="yes"/>
      <point x="1643.0" y="595"/>
      <point x="1465.0" y="826"/>
      <point x="1301.0" y="826" type="qcurve" smooth="yes"/>
      <point x="1295.0" y="826" type="line" smooth="yes"/>
      <point x="1141.0" y="826"/>
      <point x="965.0" y="595"/>
      <point x="965.0" y="405" type="qcurve" smooth="yes"/>
      <point x="965.0" y="375" type="line" smooth="yes"/>
      <point x="965.0" y="187"/>
      <point x="1136.0" y="-35"/>
      <point x="1295.0" y="-35" type="qcurve" smooth="yes"/>
    </contour>
    <contour>
      <point x="454" y="0" type="line"/>
      <point x="1294" y="1500" type="line"/>
      <point x="1281" y="1500" type="line"/>
      <point x="441" y="0" type="line"/>
    </contour>
  </outline>
</glyph>
<glyph name="ampersand" format="2">
  <advance width="1112"/>
  <unicode hex="0026"/>
  <outline>
    <contour>
      <point x="684" y="487" type="line"/>
      <point x="1119" y="618" type="line"/>
      <point x="1105" y="640" type="line"/>
      <point x="670" y="509" type="line"/>
    </contour>
    <contour>
      <point x="648" y="806" type="line"/>
      <point x="423" y="806" type="line" smooth="yes"/>
      <point x="273" y="806"/>
      <point x="17" y="607"/>
      <point x="17.0" y="417" type="qcurve" smooth="yes"/>
      <point x="17.0" y="403" type="line" smooth="yes"/>
      <point x="17" y="205.0"/>
      <point x="274.0" y="-23.0"/>
      <point x="499.0" y="-23.0" type="qcurve" smooth="yes"/>
      <point x="512.0" y="-23.0" type="line" smooth="yes"/>
      <point x="770.0" y="-23.0"/>
      <point x="1041.0" y="218"/>
      <point x="1041.0" y="401" type="qcurve" smooth="yes"/>
      <point x="1041.0" y="417" type="line" smooth="yes"/>
      <point x="1041.0" y="472"/>
      <point x="1004" y="562"/>
      <point x="980" y="603" type="qcurve"/>
      <point x="946" y="611" type="line"/>
      <point x="973" y="573"/>
      <point x="1011" y="474"/>
      <point x="1011" y="431" type="qcurve" smooth="yes"/>
      <point x="1011" y="401" type="line" smooth="yes"/>
      <point x="1011" y="212"/>
      <point x="734" y="-20"/>
      <point x="529" y="-22" type="qcurve" smooth="yes"/>
      <point x="523" y="-22" type="line" smooth="yes"/>
      <point x="305" y="-20"/>
      <point x="42" y="212"/>
      <point x="42" y="401" type="qcurve" smooth="yes"/>
      <point x="42" y="431" type="line" smooth="yes"/>
      <point x="42" y="586.0"/>
      <point x="207.0" y="763.0"/>
      <point x="349" y="790" type="qcurve"/>
      <point x="215.0" y="816.0"/>
      <point x="90.0" y="974.0"/>
      <point x="90" y="1112" type="qcurve" smooth="yes"/>
      <point x="90" y="1127" type="line" smooth="yes"/>
      <point x="90" y="1294"/>
      <point x="308" y="1512"/>
      <point x="466" y="1512" type="qcurve" smooth="yes"/>
      <point x="472" y="1512" type="line" smooth="yes"/>
      <point x="643" y="1512"/>
      <point x="851" y="1315"/>
      <point x="860" y="1138" type="qcurve" smooth="yes"/>
      <point x="860" y="1110" type="line"/>
      <point x="882.0" y="1107" type="line"/>
      <point x="882.0" y="1135" type="line" smooth="yes"/>
      <point x="882.0" y="1315"/>
      <point x="663.0" y="1535.0"/>
      <point x="468.0" y="1535.0" type="qcurve" smooth="yes"/>
      <point x="463.0" y="1535.0" type="line" smooth="yes"/>
      <point x="282.0" y="1535.0"/>
      <point x="70.0" y="1306"/>
      <point x="70.0" y="1119" type="qcurve" smooth="yes"/>
      <point x="70" y="1121" type="line" smooth="yes"/>
      <point x="70" y="928.0"/>
      <point x="277.0" y="785.0"/>
      <point x="419" y="785" type="qcurve" smooth="yes"/>
      <point x="648" y="785" type="line"/>
    </contour>
  </outline>
</glyph>
<glyph name="quotesingle" format="2">
  <advance width="503"/>
  <unicode hex="0027"/>
  <outline>
    <contour>
      <point x="262" y="962" type="line"/>
      <point x="262" y="1500" type="line"/>
      <point x="242" y="1500" type="line"/>
      <point x="242" y="962" type="line"/>
    </contour>
  </outline>
</glyph>
<glyph name="parenleft" format="2">
  <advance width="566"/>
  <unicode hex="0028"/>
  <outline>
    <contour>
      <point x="582" y="-311" type="line"/>
      <point x="180" y="110"/>
      <point x="180" y="1090"/>
      <point x="577" y="1525" type="qcurve"/>
      <point x="516" y="1505" type="line"/>
      <point x="129" y="1078"/>
      <point x="117" y="136"/>
      <point x="521" y="-291" type="qcurve"/>
    </contour>
  </outline>
</glyph>
<glyph name="hyphen" format="2">
  <advance width="1432"/>
  <unicode hex="002D"/>
  <outline>
    <contour>
      <point x="1166" y="806" type="line"/>
      <point x="266" y="806" type="line"/>
      <point x="266" y="775" type="line"/>
      <point x="1166" y="775" type="line"/>
    </contour>
  </outline>
</glyph>
<glyph name="slash" format="2">
  <advance width="556"/>
  <unicode hex="002F"/>
  <outline>
    <contour>
      <point x="-22" y="0" type="line"/>
      <point x="618" y="1500" type="line"/>
      <point x="594" y="1500" type="line"/>
      <point x="-46" y="0" type="line"/>
    </contour>
  </outline>
</glyph>
<glyph name="two" format="2">
  <advance width="915"/>
  <unicode hex="0032"/>
  <outline>
    <contour>
      <point x="887" y="0.0" type="line"/>
      <point x="35" y="0" type="line"/>
      <point x="35" y="-40" type="line"/>
      <point x="724" y="796" type="line" smooth="yes"/>
      <point x="771" y="854"/>
      <point x="890.0" y="1055.0"/>
      <point x="890.0" y="1187.0" type="qcurve" smooth="yes"/>
      <point x="890.0" y="1211.0" type="line" smooth="yes"/>
      <point x="890.0" y="1355.0"/>
      <point x="674.0" y="1534.0"/>
      <point x="473" y="1534.0" type="qcurve" smooth="yes"/>
      <point x="461" y="1534.0" type="line" smooth="yes"/>
      <point x="274" y="1534.0"/>
      <point x="42" y="1345.0"/>
      <point x="34" y="1166.0" type="qcurve" smooth="yes"/>
      <point x="33.0" y="1115.0" type="line"/>
      <point x="61" y="1108.0" type="line"/>
      <point x="63" y="1163.0" type="line" smooth="yes"/>
      <point x="69" y="1319"/>
      <point x="286.0" y="1517.0"/>
      <point x="453" y="1517.0" type="qcurve" smooth="yes"/>
      <point x="460" y="1517.0" type="line" smooth="yes"/>
      <point x="636.0" y="1517.0"/>
      <point x="858.0" y="1353.0"/>
      <point x="858.0" y="1204.0" type="qcurve" smooth="yes"/>
      <point x="858.0" y="1178.0" type="line" smooth="yes"/>
      <point x="858.0" y="1044.0"/>
      <point x="740" y="854"/>
      <point x="665" y="762.0" type="qcurve" smooth="yes"/>
      <point x="23" y="-25" type="line"/>
      <point x="887" y="-25.0" type="line"/>
    </contour>
  </outline>
</glyph>
<glyph name="four" format="2">
  <advance width="985"/>
  <unicode hex="0034"/>
  <outline>
    <contour>
      <point x="738" y="0.0" type="line"/>
      <point x="738" y="1510.0" type="line"/>
      <point x="710" y="1507.0" type="line"/>
      <point x="710" y="2.0" type="line"/>
    </contour>
    <contour>
      <point x="965" y="495" type="line"/>
      <point x="965" y="518" type="line"/>
      <point x="46" y="518" type="line"/>
      <point x="30" y="520" type="line"/>
      <point x="680" y="1460" type="line"/>
      <point x="659" y="1468" type="line"/>
      <point x="-16" y="495" type="line"/>
    </contour>
  </outline>
</glyph>
<glyph name="six" format="2">
  <advance width="1046"/>
  <unicode hex="0036"/>
  <outline>
    <contour>
      <point x="51" y="651" type="qcurve"/>
      <point x="52" y="486.0" type="line" smooth="yes"/>
      <point x="64" y="273"/>
      <point x="338.0" y="-48"/>
      <point x="558" y="-48.0" type="qcurve" smooth="yes"/>
      <point x="576" y="-48.0" type="line" smooth="yes"/>
      <point x="767" y="-48"/>
      <point x="1017" y="238"/>
      <point x="1017" y="443.0" type="qcurve" smooth="yes"/>
      <point x="1017" y="472.0" type="line" smooth="yes"/>
      <point x="1017" y="688"/>
      <point x="771" y="955"/>
      <point x="567" y="955.0" type="qcurve" smooth="yes"/>
      <point x="555" y="955.0" type="line" smooth="yes"/>
      <point x="357" y="955"/>
      <point x="37" y="685"/>
      <point x="46" y="532.0" type="qcurve" smooth="yes"/>
      <point x="45" y="505.0" type="line"/>
      <point x="58" y="505" type="line"/>
      <point x="59" y="517" type="line" smooth="yes"/>
      <point x="75" y="733"/>
      <point x="402" y="931"/>
      <point x="565" y="931.0" type="qcurve" smooth="yes"/>
      <point x="573" y="931.0" type="line" smooth="yes"/>
      <point x="767" y="931"/>
      <point x="982.0" y="701.0"/>
      <point x="982" y="461.0" type="qcurve" smooth="yes"/>
      <point x="982" y="448.0" type="line" smooth="yes"/>
      <point x="982.0" y="232.0"/>
      <point x="740" y="-26.0"/>
      <point x="562" y="-26.0" type="qcurve" smooth="yes"/>
      <point x="550" y="-26.0" type="line" smooth="yes"/>
      <point x="338" y="-26.0"/>
      <point x="80" y="298"/>
      <point x="76" y="610" type="qcurve" smooth="yes"/>
      <point x="75" y="581" type="line" smooth="yes"/>
      <point x="69" y="1027.0"/>
      <point x="504" y="1500.0"/>
      <point x="827" y="1500" type="qcurve" smooth="yes"/>
      <point x="863" y="1500" type="line"/>
      <point x="863" y="1530" type="line"/>
      <point x="833" y="1530" type="line" smooth="yes"/>
      <point x="467" y="1530"/>
      <point x="52" y="1040.0"/>
    </contour>
  </outline>
</glyph>
<glyph name="nine" format="2">
  <advance width="1046"/>
  <unicode hex="0039"/>
  <outline>
    <contour>
      <point x="995.0" y="835.0" type="qcurve"/>
      <point x="994.0" y="1000.0" type="line" smooth="yes"/>
      <point x="982.0" y="1213.0"/>
      <point x="707.0" y="1540.0"/>
      <point x="487.0" y="1540.0" type="qcurve" smooth="yes"/>
      <point x="469.0" y="1540.0" type="line" smooth="yes"/>
      <point x="278.0" y="1540.0"/>
      <point x="29.0" y="1244.0"/>
      <point x="29.0" y="1039.0" type="qcurve" smooth="yes"/>
      <point x="29.0" y="1010.0" type="line" smooth="yes"/>
      <point x="29.0" y="794.0"/>
      <point x="275.0" y="537.0"/>
      <point x="479.0" y="537.0" type="qcurve" smooth="yes"/>
      <point x="491.0" y="537.0" type="line" smooth="yes"/>
      <point x="689.0" y="537.0"/>
      <point x="1009.0" y="801.0"/>
      <point x="1000.0" y="954.0" type="qcurve" smooth="yes"/>
      <point x="1001.0" y="981.0" type="line"/>
      <point x="988.0" y="981.0" type="line"/>
      <point x="987.0" y="969.0" type="line" smooth="yes"/>
      <point x="971.0" y="753.0"/>
      <point x="644.0" y="555.0"/>
      <point x="481.0" y="555.0" type="qcurve" smooth="yes"/>
      <point x="473.0" y="555.0" type="line" smooth="yes"/>
      <point x="279.0" y="555.0"/>
      <point x="64.0" y="785.0"/>
      <point x="64.0" y="1025.0" type="qcurve" smooth="yes"/>
      <point x="64.0" y="1038.0" type="line" smooth="yes"/>
      <point x="64.0" y="1254.0"/>
      <point x="306.0" y="1512.0"/>
      <point x="484.0" y="1512.0" type="qcurve" smooth="yes"/>
      <point x="496.0" y="1512.0" type="line" smooth="yes"/>
      <point x="708.0" y="1512.0"/>
      <point x="966.0" y="1188.0"/>
      <point x="970.0" y="876.0" type="qcurve" smooth="yes"/>
      <point x="971.0" y="905.0" type="line" smooth="yes"/>
      <point x="977.0" y="491.0"/>
      <point x="514.0" y="26.0"/>
      <point x="219.0" y="17.0" type="qcurve" smooth="yes"/>
      <point x="183.0" y="17.0" type="line"/>
      <point x="183.0" y="-1.0" type="line"/>
      <point x="213.0" y="-1.0" type="line" smooth="yes"/>
      <point x="557.0" y="-1.0"/>
      <point x="993.0" y="484.0"/>
    </contour>
  </outline>
</glyph>
<glyph name="colon" format="2">
  <advance width="600"/>
  <unicode hex="003A"/>
  <outline>
    <contour>
      <point x="300" y="3" type="line" smooth="yes"/>
      <point x="301" y="3"/>
      <point x="302.0" y="28.0"/>
      <point x="302" y="57" type="qcurve" smooth="yes"/>
      <point x="302" y="82" type="line" smooth="yes"/>
      <point x="302" y="110"/>
      <point x="303" y="136"/>
      <point x="301" y="136" type="qcurve" smooth="yes"/>
      <point x="299" y="136" type="line" smooth="yes"/>
      <point x="298" y="136"/>
      <point x="297" y="110"/>
      <point x="297" y="82" type="qcurve" smooth="yes"/>
      <point x="297" y="57" type="line" smooth="yes"/>
      <point x="297.0" y="29.0"/>
      <point x="297" y="3"/>
      <point x="299" y="3" type="qcurve" smooth="yes"/>
    </contour>
    <contour>
      <point x="300" y="816" type="line" smooth="yes"/>
      <point x="301" y="816"/>
      <point x="302.0" y="841.0"/>
      <point x="302" y="870" type="qcurve" smooth="yes"/>
      <point x="302" y="895" type="line" smooth="yes"/>
      <point x="302" y="923"/>
      <point x="303" y="949"/>
      <point x="301" y="949" type="qcurve" smooth="yes"/>
      <point x="299" y="949" type="line" smooth="yes"/>
      <point x="298" y="949"/>
      <point x="297" y="923"/>
      <point x="297" y="895" type="qcurve" smooth="yes"/>
      <point x="297" y="870" type="line" smooth="yes"/>
      <point x="297.0" y="842.0"/>
      <point x="297" y="816"/>
      <point x="299" y="816" type="qcurve" smooth="yes"/>
    </contour>
  </outline>
</glyph>
<glyph name="semicolon" format="2">
  <advance width="600"/>
  <unicode hex="003B"/>
  <outline>
    <contour>
      <point x="285" y="816" type="line" smooth="yes"/>
      <point x="286" y="816"/>
      <point x="287.0" y="841.0"/>
      <point x="287" y="870" type="qcurve" smooth="yes"/>
      <point x="287" y="895" type="line" smooth="yes"/>
      <point x="287" y="923"/>
      <point x="288" y="949"/>
      <point x="286" y="949" type="qcurve" smooth="yes"/>
      <point x="284" y="949" type="line" smooth="yes"/>
      <point x="283" y="949"/>
      <point x="282" y="923"/>
      <point x="282" y="895" type="qcurve" smooth="yes"/>
      <point x="282" y="870" type="line" smooth="yes"/>
      <point x="282.0" y="842.0"/>
      <point x="282" y="816"/>
      <point x="284" y="816" type="qcurve" smooth="yes"/>
    </contour>
    <contour>
      <point x="145" y="-128" type="line"/>
      <point x="247" y="69" type="line" smooth="yes"/>
      <point x="263" y="99"/>
      <point x="297.0" y="146.0"/>
      <point x="306" y="146" type="qcurve" smooth="yes"/>
      <point x="306" y="146.0" type="line" smooth="yes"/>
      <point x="312.0" y="146.0"/>
      <point x="315.0" y="109.0"/>
      <point x="288" y="62.0" type="qcurve" smooth="yes"/>
      <point x="283" y="55" type="line" smooth="yes"/>
      <point x="266" y="30"/>
      <point x="161" y="-58"/>
      <point x="129" y="-123" type="qcurve"/>
    </contour>
  </outline>
</glyph>
<glyph name="equal" format="2">
  <advance width="1000"/>
  <unicode hex="003D"/>
  <outline>
    <contour>
      <point x="953" y="533" type="line"/>
      <point x="46" y="533" type="line"/>
      <point x="46" y="515" type="line"/>
      <point x="954" y="515" type="line"/>
    </contour>
    <contour>
      <point x="953" y="945" type="line"/>
      <point x="46" y="945" type="line"/>
      <point x="46" y="925" type="line"/>
      <point x="953" y="925" type="line"/>
    </contour>
  </outline>
</glyph>
<glyph name="at" format="2">
  <advance width="1801"/>
  <unicode hex="0040"/>
  <outline>
    <contour>
      <point x="1224" y="739" type="qcurve" smooth="yes"/>
      <point x="1219" y="710" type="line" smooth="yes"/>
      <point x="1184" y="505"/>
      <point x="940" y="301"/>
      <point x="774" y="301" type="qcurve" smooth="yes"/>
      <point x="768" y="301" type="line" smooth="yes"/>
      <point x="582.0" y="301"/>
      <point x="423" y="561"/>
      <point x="482" y="784" type="qcurve" smooth="yes"/>
      <point x="490" y="813" type="line" smooth="yes"/>
      <point x="537" y="980"/>
      <point x="759.0" y="1171.0"/>
      <point x="917" y="1171" type="qcurve" smooth="yes"/>
      <point x="924" y="1171" type="line" smooth="yes"/>
      <point x="1064.0" y="1171.0"/>
      <point x="1256" y="925"/>
    </contour>
    <contour>
      <point x="1222" y="723" type="line" smooth="yes"/>
      <point x="1256" y="893"/>
      <point x="1045" y="1197"/>
      <point x="900" y="1197" type="qcurve" smooth="yes"/>
      <point x="894" y="1197" type="line" smooth="yes"/>
      <point x="751" y="1197"/>
      <point x="492" y="976"/>
      <point x="454" y="811" type="qcurve" smooth="yes"/>
      <point x="449" y="789" type="line" smooth="yes"/>
      <point x="396" y="556"/>
      <point x="568.0" y="261"/>
      <point x="771" y="261" type="qcurve" smooth="yes"/>
      <point x="777" y="261" type="line" smooth="yes"/>
      <point x="927" y="261"/>
      <point x="1183" y="528"/>
      <point x="1218" y="703" type="qcurve" smooth="yes"/>
    </contour>
    <contour>
      <point x="1192" y="495" type="qcurve" smooth="yes"/>
      <point x="1312" y="1125" type="line"/>
      <point x="1283" y="1125" type="line"/>
      <point x="1163" y="462" type="line" smooth="yes"/>
      <point x="1149" y="382"/>
      <point x="1222" y="288"/>
      <point x="1315" y="288" type="qcurve" smooth="yes"/>
      <point x="1489" y="288"/>
      <point x="1760" y="598"/>
      <point x="1760.0" y="806.0" type="qcurve" smooth="yes"/>
      <point x="1760" y="1167"/>
      <point x="1271" y="1566.0"/>
      <point x="929" y="1566.0" type="qcurve" smooth="yes"/>
      <point x="585" y="1566.0"/>
      <point x="67" y="1076.0"/>
      <point x="67" y="713.0" type="qcurve" smooth="yes"/>
      <point x="67" y="295.0"/>
      <point x="568" y="-149"/>
      <point x="909" y="-149.0" type="qcurve" smooth="yes"/>
      <point x="1139" y="-149.0"/>
      <point x="1473" y="-1.0"/>
      <point x="1546" y="82.0" type="qcurve"/>
      <point x="1524" y="114" type="line"/>
      <point x="1481" y="65"/>
      <point x="1207.0" y="-102.0"/>
      <point x="907" y="-102" type="qcurve" smooth="yes"/>
      <point x="562" y="-102"/>
      <point x="100" y="322"/>
      <point x="100" y="715" type="qcurve" smooth="yes"/>
      <point x="100" y="1077"/>
      <point x="571" y="1524"/>
      <point x="930" y="1524" type="qcurve" smooth="yes"/>
      <point x="1296" y="1524"/>
      <point x="1731.0" y="1117.0"/>
      <point x="1731.0" y="806.0" type="qcurve" smooth="yes"/>
      <point x="1731" y="603"/>
      <point x="1508" y="319"/>
      <point x="1327" y="319" type="qcurve" smooth="yes"/>
      <point x="1229" y="319"/>
      <point x="1180" y="424"/>
    </contour>
  </outline>
</glyph>
<glyph name="D" format="2">
  <advance width="1375"/>
  <unicode hex="0044"/>
  <outline>
    <contour>
      <point x="210" y="0" type="line"/>
      <point x="210" y="1500" type="line"/>
      <point x="180" y="1500" type="line"/>
      <point x="180" y="0" type="line"/>
    </contour>
    <contour>
      <point x="676.0" y="-17" type="line" smooth="yes"/>
      <point x="925.0" y="-17.0"/>
      <point x="1276" y="405"/>
      <point x="1276.0" y="741" type="qcurve" smooth="yes"/>
      <point x="1276" y="760.0" type="line" smooth="yes"/>
      <point x="1276" y="1099"/>
      <point x="923.0" y="1519.0"/>
      <point x="674" y="1520.0" type="qcurve" smooth="yes"/>
      <point x="202" y="1520.0" type="line"/>
      <point x="202" y="1500" type="line"/>
      <point x="623.0" y="1500" type="line" smooth="yes"/>
      <point x="891.0" y="1500.0"/>
      <point x="1249" y="1107"/>
      <point x="1249.0" y="759" type="qcurve" smooth="yes"/>
      <point x="1249.0" y="740" type="line" smooth="yes"/>
      <point x="1249" y="392"/>
      <point x="897.0" y="0.0"/>
      <point x="644.0" y="0" type="qcurve" smooth="yes"/>
      <point x="202" y="0" type="line"/>
      <point x="202" y="-17.0" type="line"/>
    </contour>
  </outline>
</glyph>
<glyph name="F" format="2">
  <advance width="990"/>
  <unicode hex="0046"/>
  <outline>
    <contour>
      <point x="210" y="0" type="line"/>
      <point x="210" y="1500" type="line"/>
      <point x="180" y="1500" type="line"/>
      <point x="180" y="0" type="line"/>
    </contour>
    <contour>
      <point x="886" y="787" type="line"/>
      <point x="191" y="787" type="line"/>
      <point x="191" y="762" type="line"/>
      <point x="886" y="762" type="line"/>
    </contour>
    <contour>
      <point x="966" y="1523" type="line"/>
      <point x="191" y="1523" type="line"/>
      <point x="191" y="1500" type="line"/>
      <point x="966" y="1500" type="line"/>
    </contour>
  </outline>
</glyph>
<glyph name="H" format="2">
  <advance width="1342"/>
  <unicode hex="0048"/>
  <outline>
    <contour>
      <point x="216" y="0" type="line"/>
      <point x="216" y="1500" type="line"/>
      <point x="186" y="1500" type="line"/>
      <point x="186" y="0" type="line"/>
    </contour>
    <contour>
      <point x="1156" y="0" type="line"/>
      <point x="1156" y="1500" type="line"/>
      <point x="1126" y="1500" type="line"/>
      <point x="1126" y="0" type="line"/>
    </contour>
    <contour>
      <point x="1146" y="819" type="line"/>
      <point x="196" y="819" type="line"/>
      <point x="196" y="790" type="line"/>
      <point x="1146" y="790" type="line"/>
    </contour>
  </outline>
</glyph>
<glyph name="I" format="2">
  <advance width="462"/>
  <unicode hex="0049"/>
  <outline>
    <contour>
      <point x="245" y="0" type="line"/>
      <point x="245" y="1500" type="line"/>
      <point x="219" y="1500" type="line"/>
      <point x="219" y="0" type="line"/>
    </contour>
    <contour>
      <point x="231" y="0" type="line"/>
      <point x="221" y="0" type="line"/>
      <point x="221" y="-16" type="line"/>
      <point x="231" y="-16" type="line"/>
    </contour>
    <contour>
      <point x="231" y="1516" type="line"/>
      <point x="221" y="1516" type="line"/>
      <point x="221" y="1500" type="line"/>
      <point x="231" y="1500" type="line"/>
    </contour>
  </outline>
</glyph>
<glyph name="Q" format="2">
  <advance width="1602"/>
  <unicode hex="0051"/>
  <outline>
    <contour>
      <point x="799" y="-17.0" type="line" smooth="yes"/>
      <point x="497" y="-17"/>
      <point x="122" y="394.0"/>
      <point x="122" y="734.0" type="qcurve" smooth="yes"/>
      <point x="122" y="753.0" type="line" smooth="yes"/>
      <point x="122" y="1091.0"/>
      <point x="499.0" y="1513.0"/>
      <point x="794" y="1513.0" type="qcurve" smooth="yes"/>
      <point x="802" y="1513.0" type="line" smooth="yes"/>
      <point x="1115" y="1513.0"/>
      <point x="1481.0" y="1091.0"/>
      <point x="1481.0" y="772.0" type="qcurve" smooth="yes"/>
      <point x="1481.0" y="722.0" type="line" smooth="yes"/>
      <point x="1481.0" y="394.0"/>
      <point x="1108.0" y="-17.0"/>
      <point x="808" y="-17.0" type="qcurve" smooth="yes"/>
    </contour>
    <contour>
      <point x="811.0" y="-46.0" type="line" smooth="yes"/>
      <point x="1149.0" y="-46.0"/>
      <point x="1514.0" y="407.0"/>
      <point x="1514.0" y="730" type="qcurve" smooth="yes"/>
      <point x="1514.0" y="740" type="line" smooth="yes"/>
      <point x="1514.0" y="1068"/>
      <point x="1154.0" y="1528"/>
      <point x="811.0" y="1528.0" type="qcurve" smooth="yes"/>
      <point x="796.0" y="1528.0" type="line" smooth="yes"/>
      <point x="471.0" y="1528"/>
      <point x="98.0" y="1088.0"/>
      <point x="98.0" y="753" type="qcurve" smooth="yes"/>
      <point x="98.0" y="722" type="line" smooth="yes"/>
      <point x="98" y="407.0"/>
      <point x="455.0" y="-46.0"/>
      <point x="796.0" y="-46.0" type="qcurve" smooth="yes"/>
    </contour>
    <contour>
      <point x="703" y="-50" type="line"/>
      <point x="1496" y="-65" type="line"/>
      <point x="1496" y="-70" type="line"/>
      <point x="704" y="-19" type="line"/>
    </contour>
  </outline>
</glyph>
<glyph name="U" format="2">
  <advance width="1335"/>
  <unicode hex="0055"/>
  <outline>
    <contour>
      <point x="176" y="1500.0" type="line"/>
      <point x="146.0" y="1500.0" type="line"/>
      <point x="146.0" y="532" type="line" smooth="yes"/>
      <point x="146.0" y="247.0"/>
      <point x="448.0" y="-28"/>
      <point x="658.0" y="-28" type="qcurve" smooth="yes"/>
      <point x="669.0" y="-28" type="line" smooth="yes"/>
      <point x="898.0" y="-28.0"/>
      <point x="1185.0" y="267.0"/>
      <point x="1185.0" y="532" type="qcurve" smooth="yes"/>
      <point x="1185" y="1500.0" type="line"/>
      <point x="1159" y="1500.0" type="line"/>
      <point x="1155" y="528.0" type="line" smooth="yes"/>
      <point x="1154.0" y="269.0"/>
      <point x="896.0" y="-19.0"/>
      <point x="669" y="-19.0" type="qcurve" smooth="yes"/>
      <point x="662" y="-19.0" type="line" smooth="yes"/>
      <point x="474.0" y="-19"/>
      <point x="176" y="243.0"/>
      <point x="176" y="554.0" type="qcurve" smooth="yes"/>
    </contour>
  </outline>
</glyph>
<glyph name="W" format="2">
  <advance width="1770"/>
  <unicode hex="0057"/>
  <outline>
    <contour>
      <point x="446" y="0" type="line"/>
      <point x="21" y="1500" type="line"/>
      <point x="-27" y="1500" type="line"/>
      <point x="450" y="-103" type="line"/>
      <point x="873" y="1500" type="line"/>
      <point x="859" y="1500" type="line"/>
      <point x="1289" y="-98" type="line"/>
      <point x="1742" y="1500" type="line"/>
      <point x="1700" y="1500" type="line"/>
      <point x="1294" y="0" type="line"/>
      <point x="1281" y="0" type="line"/>
      <point x="870" y="1508" type="line"/>
      <point x="864" y="1508" type="line"/>
      <point x="455" y="0" type="line"/>
    </contour>
  </outline>
</glyph>
<glyph name="Y" format="2">
  <advance width="1150"/>
  <unicode hex="0059"/>
  <outline>
    <contour>
      <point x="605" y="500" type="line"/>
      <point x="20" y="1500" type="line"/>
      <point x="0" y="1500" type="line"/>
      <point x="575" y="507" type="line"/>
      <point x="1151" y="1500" type="line"/>
      <point x="1130" y="1500" type="line"/>
      <point x="543" y="500" type="line"/>
    </contour>
    <contour>
      <point x="589.0" y="0.0" type="line"/>
      <point x="589.0" y="520.0" type="line"/>
      <point x="559.0" y="520.0" type="line"/>
      <point x="559.0" y="0.0" type="line"/>
    </contour>
  </outline>
</glyph>
<glyph name="bracketleft" format="2">
  <advance width="566"/>
  <unicode hex="005B"/>
  <outline>
    <contour>
      <point x="242" y="-280" type="line"/>
      <point x="242" y="1500" type="line"/>
      <point x="205" y="1500" type="line"/>
      <point x="205" y="-280" type="line"/>
    </contour>
    <contour>
      <point x="536" y="-280" type="line"/>
      <point x="229" y="-280" type="line"/>
      <point x="229" y="-307" type="line"/>
      <point x="536" y="-307" type="line"/>
    </contour>
    <contour>
      <point x="536" y="1527" type="line"/>
      <point x="224" y="1527" type="line"/>
      <point x="224" y="1500" type="line"/>
      <point x="536" y="1500" type="line"/>
    </contour>
  </outline>
</glyph>
<glyph name="grave" format="2">
  <advance width="1000"/>
  <unicode hex="0060"/>
  <outline>
    <contour>
      <point x="455.0" y="1389.0" type="line"/>
      <point x="660.0" y="1058.0" type="line"/>
      <point x="674.0" y="1058.0" type="line"/>
      <point x="435.0" y="1389.0" type="line"/>
    </contour>
  </outline>
</glyph>
<glyph name="b" format="2">
  <advance width="1105"/>
  <unicode hex="0062"/>
  <outline>
    <contour>
      <point x="162" y="0" type="line"/>
      <point x="162" y="1500" type="line"/>
      <point x="128" y="1500" type="line"/>
      <point x="128" y="0" type="line"/>
    </contour>
    <contour>
      <point x="142.0" y="508.0" type="line" smooth="yes"/>
      <point x="142" y="810.0"/>
      <point x="403.0" y="1012.0"/>
      <point x="583" y="1012.0" type="qcurve" smooth="yes"/>
      <point x="591" y="1012.0" type="line" smooth="yes"/>
      <point x="798.0" y="1012.0"/>
      <point x="1029.0" y="719.0"/>
      <point x="1029.0" y="492.0" type="qcurve" smooth="yes"/>
      <point x="1029.0" y="489.0" type="line" smooth="yes"/>
      <point x="1029.0" y="268.0"/>
      <point x="806.0" y="-27.0"/>
      <point x="605" y="-27.0" type="qcurve" smooth="yes"/>
      <point x="597.0" y="-27.0" type="line" smooth="yes"/>
      <point x="413.0" y="-27"/>
      <point x="142" y="184.0"/>
      <point x="142" y="493.0" type="qcurve" smooth="yes"/>
    </contour>
    <contour>
      <point x="140.0" y="521" type="qcurve" smooth="yes"/>
      <point x="140.0" y="484" type="line" smooth="yes"/>
      <point x="140" y="224"/>
      <point x="410.0" y="-41"/>
      <point x="603.0" y="-41" type="qcurve" smooth="yes"/>
      <point x="613.0" y="-41" type="line" smooth="yes"/>
      <point x="791.0" y="-41.0"/>
      <point x="1067.0" y="238"/>
      <point x="1067.0" y="484" type="qcurve" smooth="yes"/>
      <point x="1067.0" y="501" type="line" smooth="yes"/>
      <point x="1067.0" y="750.0"/>
      <point x="792" y="1031"/>
      <point x="613.0" y="1031" type="qcurve" smooth="yes"/>
      <point x="603.0" y="1031" type="line" smooth="yes"/>
      <point x="431" y="1031"/>
      <point x="140" y="769.0"/>
    </contour>
  </outline>
</glyph>
<glyph name="c" format="2">
  <advance width="980"/>
  <unicode hex="0063"/>
  <outline>
    <contour>
      <point x="930" y="352.0" type="line"/>
      <point x="927" y="327.0" type="line" smooth="yes"/>
      <point x="911" y="189"/>
      <point x="719.0" y="-25.0"/>
      <point x="526" y="-25.0" type="qcurve" smooth="yes"/>
      <point x="520" y="-25.0" type="line" smooth="yes"/>
      <point x="321.0" y="-25"/>
      <point x="76" y="230.0"/>
      <point x="76" y="489.0" type="qcurve" smooth="yes"/>
      <point x="76" y="497.0" type="line" smooth="yes"/>
      <point x="76" y="734.0"/>
      <point x="314.0" y="1011.0"/>
      <point x="509" y="1011.0" type="qcurve" smooth="yes"/>
      <point x="528" y="1011.0" type="line" smooth="yes"/>
      <point x="717.0" y="1011.0"/>
      <point x="910" y="808.0"/>
      <point x="922" y="636.0" type="qcurve" smooth="yes"/>
      <point x="924" y="610.0" type="line"/>
      <point x="967" y="610.0" type="line"/>
      <point x="964" y="645.0" type="line" smooth="yes"/>
      <point x="949" y="810"/>
      <point x="744.0" y="1031.0"/>
      <point x="533.0" y="1031" type="qcurve" smooth="yes"/>
      <point x="517.0" y="1031" type="line" smooth="yes"/>
      <point x="303.0" y="1031.0"/>
      <point x="37" y="749.0"/>
      <point x="37.0" y="508" type="qcurve" smooth="yes"/>
      <point x="37.0" y="472" type="line" smooth="yes"/>
      <point x="37" y="233.0"/>
      <point x="307.0" y="-40"/>
      <point x="523.0" y="-40" type="qcurve" smooth="yes"/>
      <point x="548.0" y="-40" type="line" smooth="yes"/>
      <point x="742.0" y="-40.0"/>
      <point x="954" y="188"/>
      <point x="968" y="324.0" type="qcurve" smooth="yes"/>
      <point x="972" y="354.0" type="line"/>
    </contour>
  </outline>
</glyph>
<glyph name="e" format="2">
  <advance width="980"/>
  <unicode hex="0065"/>
  <outline>
    <contour>
      <point x="911" y="319.0" type="line"/>
      <point x="909" y="296.0" type="line" smooth="yes"/>
      <point x="898" y="165"/>
      <point x="692.0" y="-27.0"/>
      <point x="510" y="-27.0" type="qcurve" smooth="yes"/>
      <point x="502" y="-27.0" type="line" smooth="yes"/>
      <point x="323" y="-27"/>
      <point x="76" y="246.0"/>
      <point x="76" y="479.0" type="qcurve" smooth="yes"/>
      <point x="76" y="494.0" type="line" smooth="yes"/>
      <point x="76" y="729.0"/>
      <point x="338.0" y="1010.0"/>
      <point x="492" y="1010.0" type="qcurve" smooth="yes"/>
      <point x="512" y="1010.0" type="line" smooth="yes"/>
      <point x="699.0" y="1010.0"/>
      <point x="896" y="787"/>
      <point x="917" y="534.0" type="qcurve" smooth="yes"/>
      <point x="920" y="559.0" type="line"/>
      <point x="31" y="559" type="line"/>
      <point x="31" y="533" type="line"/>
      <point x="952" y="533" type="line"/>
      <point x="952" y="548" type="line" smooth="yes"/>
      <point x="935.0" y="795.0"/>
      <point x="718.0" y="1031.0"/>
      <point x="506" y="1031.0" type="qcurve" smooth="yes"/>
      <point x="502" y="1031.0" type="line" smooth="yes"/>
      <point x="326.0" y="1031.0"/>
      <point x="43" y="736.0"/>
      <point x="43" y="493.0" type="qcurve" smooth="yes"/>
      <point x="43" y="474.0" type="line" smooth="yes"/>
      <point x="43" y="224.0"/>
      <point x="329.0" y="-43"/>
      <point x="500" y="-43.0" type="qcurve" smooth="yes"/>
      <point x="511" y="-43" type="line" smooth="yes"/>
      <point x="692.0" y="-43.0"/>
      <point x="921" y="144"/>
      <point x="946" y="296" type="qcurve" smooth="yes"/>
      <point x="949" y="319" type="line"/>
    </contour>
  </outline>
</glyph>
<glyph name="f" format="2">
  <advance width="498"/>
  <unicode hex="0066"/>
  <outline>
    <contour>
      <point x="481" y="1009" type="line"/>
      <point x="21" y="1009" type="line"/>
      <point x="21" y="980" type="line"/>
      <point x="481" y="980" type="line"/>
    </contour>
    <contour>
      <point x="208" y="1374" type="qcurve" smooth="yes"/>
      <point x="208.0" y="0.0" type="line"/>
      <point x="242.0" y="0.0" type="line"/>
      <point x="242" y="1344" type="line" smooth="yes"/>
      <point x="242.0" y="1448.0"/>
      <point x="341" y="1553"/>
      <point x="409" y="1553.0" type="qcurve" smooth="yes"/>
      <point x="475.0" y="1553.0"/>
      <point x="541.0" y="1529.0"/>
      <point x="557" y="1522" type="qcurve"/>
      <point x="557" y="1537" type="line"/>
      <point x="540.0" y="1545.0"/>
      <point x="450" y="1575"/>
      <point x="384" y="1575" type="qcurve" smooth="yes"/>
      <point x="308" y="1575"/>
      <point x="208.0" y="1481.0"/>
    </contour>
  </outline>
</glyph>
<glyph name="g" format="2">
  <advance width="1108"/>
  <unicode hex="0067"/>
  <outline>
    <contour>
      <point x="966" y="492" type="qcurve" smooth="yes"/>
      <point x="966" y="477" type="line" smooth="yes"/>
      <point x="966.0" y="185.0"/>
      <point x="702" y="-37"/>
      <point x="528" y="-37" type="qcurve" smooth="yes"/>
      <point x="520" y="-37" type="line" smooth="yes"/>
      <point x="310" y="-37"/>
      <point x="76" y="251.0"/>
      <point x="76" y="498" type="qcurve" smooth="yes"/>
      <point x="76" y="501" type="line" smooth="yes"/>
      <point x="76" y="722"/>
      <point x="312" y="1012"/>
      <point x="516" y="1012" type="qcurve" smooth="yes"/>
      <point x="524" y="1012" type="line" smooth="yes"/>
      <point x="702.0" y="1012.0"/>
      <point x="966.0" y="831.0"/>
    </contour>
    <contour>
      <point x="966.0" y="503" type="line" smooth="yes"/>
      <point x="966.0" y="764.0"/>
      <point x="697" y="1031"/>
      <point x="523.0" y="1031" type="qcurve" smooth="yes"/>
      <point x="513.0" y="1031" type="line" smooth="yes"/>
      <point x="322" y="1031"/>
      <point x="39.0" y="756"/>
      <point x="39.0" y="508" type="qcurve" smooth="yes"/>
      <point x="39.0" y="493" type="line" smooth="yes"/>
      <point x="39.0" y="222.0"/>
      <point x="321" y="-52"/>
      <point x="501.0" y="-52" type="qcurve" smooth="yes"/>
      <point x="511.0" y="-52" type="line" smooth="yes"/>
      <point x="685" y="-52"/>
      <point x="966.0" y="189.0"/>
      <point x="966.0" y="468" type="qcurve" smooth="yes"/>
    </contour>
    <contour>
      <point x="386" y="-532" type="line"/>
      <point x="366" y="-528"/>
      <point x="460" y="-542"/>
      <point x="494" y="-542" type="qcurve" smooth="yes"/>
      <point x="716.0" y="-542.0"/>
      <point x="986.0" y="-262.0"/>
      <point x="986.0" y="-6.0" type="qcurve" smooth="yes"/>
      <point x="986.0" y="1000.0" type="line"/>
      <point x="946.0" y="1000.0" type="line"/>
      <point x="946.0" y="-47.0" type="line" smooth="yes"/>
      <point x="946.0" y="-240.0"/>
      <point x="716" y="-503"/>
      <point x="482" y="-503" type="qcurve" smooth="yes"/>
      <point x="454" y="-503"/>
      <point x="384" y="-494"/>
      <point x="390" y="-496" type="qcurve"/>
    </contour>
  </outline>
</glyph>
<glyph name="k" format="2">
  <advance width="903"/>
  <unicode hex="006B"/>
  <outline>
    <contour>
      <point x="162" y="0" type="line"/>
      <point x="162" y="1500" type="line"/>
      <point x="128" y="1500" type="line"/>
      <point x="128" y="0" type="line"/>
    </contour>
    <contour>
      <point x="489" y="596" type="line"/>
      <point x="110" y="217" type="line"/>
      <point x="110" y="222" type="line"/>
      <point x="442.0" y="533.0" type="line"/>
      <point x="883" y="980" type="line"/>
      <point x="844" y="980" type="line"/>
      <point x="465" y="581" type="line"/>
    </contour>
    <contour>
      <point x="453" y="585" type="line"/>
      <point x="882" y="0" type="line"/>
      <point x="922" y="0" type="line"/>
      <point x="492" y="598" type="line"/>
    </contour>
  </outline>
</glyph>
<glyph name="m" format="2">
  <advance width="1753"/>
  <unicode hex="006D"/>
  <outline>
    <contour>
      <point x="162" y="0" type="line"/>
      <point x="162" y="980" type="line"/>
      <point x="128" y="980" type="line"/>
      <point x="128" y="0" type="line"/>
    </contour>
    <contour>
      <point x="144" y="800" type="line"/>
      <point x="172" y="859"/>
      <point x="406" y="1012"/>
      <point x="571.0" y="1012.0" type="qcurve" smooth="yes"/>
      <point x="726" y="1012"/>
      <point x="865" y="843"/>
      <point x="866" y="664.0" type="qcurve" smooth="yes"/>
      <point x="866" y="0.0" type="line"/>
      <point x="900.0" y="0.0" type="line"/>
      <point x="900" y="682.0" type="line" smooth="yes"/>
      <point x="900" y="875"/>
      <point x="722" y="1046"/>
      <point x="575.0" y="1046.0" type="qcurve" smooth="yes"/>
      <point x="442" y="1046"/>
      <point x="198" y="917"/>
      <point x="130" y="804" type="qcurve"/>
    </contour>
    <contour>
      <point x="847" y="804" type="line"/>
      <point x="877" y="871"/>
      <point x="1103" y="1012"/>
      <point x="1275.0" y="1012.0" type="qcurve" smooth="yes"/>
      <point x="1419.0" y="1012"/>
      <point x="1596" y="834"/>
      <point x="1597" y="655.0" type="qcurve" smooth="yes"/>
      <point x="1597" y="0.0" type="line"/>
      <point x="1631.0" y="0.0" type="line"/>
      <point x="1631.0" y="679" type="line" smooth="yes"/>
      <point x="1631" y="873"/>
      <point x="1418.0" y="1045"/>
      <point x="1281.0" y="1045.0" type="qcurve" smooth="yes"/>
      <point x="1148" y="1045"/>
      <point x="911" y="934"/>
      <point x="838" y="816" type="qcurve"/>
    </contour>
  </outline>
</glyph>
<glyph name="n" format="2">
  <advance width="1079"/>
  <unicode hex="006E"/>
  <outline>
    <contour>
      <point x="162.0" y="0.0" type="line"/>
      <point x="162.0" y="980.0" type="line"/>
      <point x="128.0" y="980.0" type="line"/>
      <point x="128.0" y="0.0" type="line"/>
    </contour>
    <contour>
      <point x="147" y="805" type="line"/>
      <point x="162" y="867"/>
      <point x="418" y="1012"/>
      <point x="574" y="1012" type="qcurve" smooth="yes"/>
      <point x="729" y="1012"/>
      <point x="923.0" y="834.0"/>
      <point x="923.0" y="655" type="qcurve" smooth="yes"/>
      <point x="922" y="0" type="line"/>
      <point x="956" y="0.0" type="line"/>
      <point x="956.0" y="679" type="line" smooth="yes"/>
      <point x="956.0" y="867.0"/>
      <point x="728" y="1045"/>
      <point x="575.0" y="1045" type="qcurve" smooth="yes"/>
      <point x="456" y="1045"/>
      <point x="195" y="925.0"/>
      <point x="137" y="819.0" type="qcurve"/>
    </contour>
  </outline>
</glyph>
<glyph name="o" format="2">
  <advance width="1050"/>
  <unicode hex="006F"/>
  <outline>
    <contour>
      <point x="518" y="-26.0" type="line" smooth="yes"/>
      <point x="317.0" y="-26"/>
      <point x="76" y="246.0"/>
      <point x="76" y="478.0" type="qcurve" smooth="yes"/>
      <point x="76" y="489.0" type="line" smooth="yes"/>
      <point x="76" y="727.0"/>
      <point x="319.0" y="1012.0"/>
      <point x="514" y="1012.0" type="qcurve" smooth="yes"/>
      <point x="520" y="1012.0" type="line" smooth="yes"/>
      <point x="722.0" y="1012.0"/>
      <point x="974" y="726.0"/>
      <point x="974" y="494.0" type="qcurve" smooth="yes"/>
      <point x="974" y="482.0" type="line" smooth="yes"/>
      <point x="974" y="247.0"/>
      <point x="726.0" y="-26.0"/>
      <point x="524" y="-26.0" type="qcurve" smooth="yes"/>
    </contour>
    <contour>
      <point x="518" y="-38.0" type="line" smooth="yes"/>
      <point x="721" y="-38.0"/>
      <point x="1012.0" y="235"/>
      <point x="1012.0" y="470" type="qcurve" smooth="yes"/>
      <point x="1012.0" y="502" type="line" smooth="yes"/>
      <point x="1012.0" y="738"/>
      <point x="725" y="1031.0"/>
      <point x="518" y="1031.0" type="qcurve" smooth="yes"/>
      <point x="511" y="1031.0" type="line" smooth="yes"/>
      <point x="319" y="1031.0"/>
      <point x="38.0" y="738"/>
      <point x="38.0" y="502" type="qcurve" smooth="yes"/>
      <point x="38.0" y="470" type="line" smooth="yes"/>
      <point x="38.0" y="236"/>
      <point x="325" y="-38.0"/>
      <point x="511" y="-38.0" type="qcurve" smooth="yes"/>
    </contour>
  </outline>
</glyph>
<glyph name="q" format="2">
  <advance width="1115"/>
  <unicode hex="0071"/>
  <outline>
    <contour>
      <point x="953" y="-500" type="line"/>
      <point x="987" y="-500" type="line"/>
      <point x="987" y="980" type="line"/>
      <point x="953" y="980" type="line"/>
    </contour>
    <contour>
      <point x="966" y="492" type="qcurve" smooth="yes"/>
      <point x="966" y="477" type="line" smooth="yes"/>
      <point x="966.0" y="195.0"/>
      <point x="702" y="-27"/>
      <point x="528" y="-27" type="qcurve" smooth="yes"/>
      <point x="520" y="-27" type="line" smooth="yes"/>
      <point x="310" y="-27"/>
      <point x="76" y="266"/>
      <point x="76" y="493" type="qcurve" smooth="yes"/>
      <point x="76" y="496" type="line" smooth="yes"/>
      <point x="76" y="717"/>
      <point x="312" y="1012"/>
      <point x="516" y="1012" type="qcurve" smooth="yes"/>
      <point x="524" y="1012" type="line" smooth="yes"/>
      <point x="702.0" y="1012.0"/>
      <point x="966.0" y="831.0"/>
    </contour>
    <contour>
      <point x="966.0" y="503" type="line" smooth="yes"/>
      <point x="966.0" y="764.0"/>
      <point x="697" y="1031"/>
      <point x="523.0" y="1031" type="qcurve" smooth="yes"/>
      <point x="513.0" y="1031" type="line" smooth="yes"/>
      <point x="322" y="1031"/>
      <point x="39.0" y="751"/>
      <point x="39.0" y="503" type="qcurve" smooth="yes"/>
      <point x="39.0" y="488" type="line" smooth="yes"/>
      <point x="39.0" y="237"/>
      <point x="321" y="-42"/>
      <point x="501.0" y="-42" type="qcurve" smooth="yes"/>
      <point x="511.0" y="-42" type="line" smooth="yes"/>
      <point x="685" y="-42"/>
      <point x="966.0" y="199"/>
      <point x="966.0" y="468" type="qcurve" smooth="yes"/>
    </contour>
  </outline>
</glyph>
<glyph name="r" format="2">
  <advance width="641"/>
  <unicode hex="0072"/>
  <outline>
    <contour>
      <point x="162" y="0" type="line"/>
      <point x="162" y="979" type="line"/>
      <point x="132" y="979" type="line"/>
      <point x="132" y="0" type="line"/>
    </contour>
    <contour>
      <point x="102" y="762" type="line"/>
      <point x="154" y="867"/>
      <point x="403" y="1009"/>
      <point x="558" y="1009" type="qcurve" smooth="yes"/>
      <point x="571" y="1009"/>
      <point x="597" y="1008"/>
      <point x="609" y="1007" type="qcurve"/>
      <point x="609" y="1023" type="line"/>
      <point x="598" y="1024"/>
      <point x="572" y="1026"/>
      <point x="558" y="1026" type="qcurve" smooth="yes"/>
      <point x="406" y="1026"/>
      <point x="181" y="898"/>
      <point x="124" y="798" type="qcurve"/>
    </contour>
  </outline>
</glyph>
<glyph name="s" format="2">
  <advance width="807"/>
  <unicode hex="0073"/>
  <outline>
    <contour>
      <point x="799.0" y="261" type="line" smooth="yes"/>
      <point x="799.0" y="376.0"/>
      <point x="625.0" y="487"/>
      <point x="406.0" y="539" type="qcurve" smooth="yes"/>
      <point x="193" y="590"/>
      <point x="65.0" y="684"/>
      <point x="65.0" y="784.0" type="qcurve" smooth="yes"/>
      <point x="65.0" y="796.0" type="line" smooth="yes"/>
      <point x="65.0" y="894"/>
      <point x="236.0" y="1012.0"/>
      <point x="387.0" y="1012.0" type="qcurve" smooth="yes"/>
      <point x="395.0" y="1012.0" type="line" smooth="yes"/>
      <point x="531.0" y="1012.0"/>
      <point x="720" y="869"/>
      <point x="724.0" y="743.0" type="qcurve" smooth="yes"/>
      <point x="723.0" y="741.0" type="line"/>
      <point x="742.0" y="741.0" type="line"/>
      <point x="741.0" y="740.0" type="line" smooth="yes"/>
      <point x="736.0" y="871"/>
      <point x="560" y="1035"/>
      <point x="392.0" y="1035.0" type="qcurve" smooth="yes"/>
      <point x="386.0" y="1035.0" type="line" smooth="yes"/>
      <point x="208" y="1035"/>
      <point x="28" y="893.0"/>
      <point x="28.0" y="782.0" type="qcurve" smooth="yes"/>
      <point x="28.0" y="778.0" type="line" smooth="yes"/>
      <point x="28" y="673"/>
      <point x="193.0" y="563"/>
      <point x="401.0" y="515.0" type="qcurve" smooth="yes"/>
      <point x="609.0" y="467"/>
      <point x="764.0" y="358.0"/>
      <point x="764.0" y="243.0" type="qcurve" smooth="yes"/>
      <point x="764.0" y="255.0" type="line" smooth="yes"/>
      <point x="764.0" y="139"/>
      <point x="570.0" y="-23.0"/>
      <point x="381.0" y="-23" type="qcurve" smooth="yes"/>
      <point x="376.0" y="-23.0" type="line" smooth="yes"/>
      <point x="207.0" y="-23"/>
      <point x="39.0" y="130"/>
      <point x="34.0" y="250" type="qcurve" smooth="yes"/>
      <point x="33.0" y="235.0" type="line"/>
      <point x="5.0" y="235.0" type="line"/>
      <point x="6.0" y="257" type="line" smooth="yes"/>
      <point x="14" y="94"/>
      <point x="229.0" y="-36.0"/>
      <point x="383.0" y="-36.0" type="qcurve" smooth="yes"/>
      <point x="384.0" y="-36" type="line" smooth="yes"/>
      <point x="616.0" y="-36.0"/>
      <point x="799" y="130"/>
      <point x="799.0" y="253" type="qcurve" smooth="yes"/>
    </contour>
  </outline>
</glyph>
<glyph name="u" format="2">
  <advance width="1079"/>
  <unicode hex="0075"/>
  <outline>
    <contour>
      <point x="914.0" y="978.0" type="line"/>
      <point x="914.0" y="-2.0" type="line"/>
      <point x="948.0" y="-2.0" type="line"/>
      <point x="948.0" y="978.0" type="line"/>
    </contour>
    <contour>
      <point x="929.0" y="153.0" type="line"/>
      <point x="910.0" y="91.0"/>
      <point x="663.0" y="-34.0"/>
      <point x="507.0" y="-34.0" type="qcurve" smooth="yes"/>
      <point x="352.0" y="-34.0"/>
      <point x="163.0" y="144.0"/>
      <point x="163.0" y="323.0" type="qcurve" smooth="yes"/>
      <point x="164.0" y="978.0" type="line"/>
      <point x="130.0" y="978.0" type="line"/>
      <point x="130.0" y="299.0" type="line" smooth="yes"/>
      <point x="130.0" y="104.0"/>
      <point x="353.0" y="-67.0"/>
      <point x="506.0" y="-67.0" type="qcurve" smooth="yes"/>
      <point x="625.0" y="-67.0"/>
      <point x="883.0" y="32.0"/>
      <point x="939.0" y="139.0" type="qcurve"/>
    </contour>
  </outline>
</glyph>
<glyph name="x" format="2">
  <advance width="800"/>
  <unicode hex="0078"/>
  <outline>
    <contour>
      <point x="22" y="0" type="line"/>
      <point x="768" y="980" type="line"/>
      <point x="739" y="980" type="line"/>
      <point x="-7" y="0" type="line"/>
    </contour>
    <contour>
      <point x="813" y="0" type="line"/>
      <point x="70" y="980" type="line"/>
      <point x="34" y="980" type="line"/>
      <point x="778" y="0" type="line"/>
    </contour>
  </outline>
</glyph>
<glyph name="z" format="2">
  <advance width="795"/>
  <unicode hex="007A"/>
  <outline>
    <contour>
      <point x="755" y="0" type="line"/>
      <point x="65" y="0" type="line"/>
      <point x="60" y="-23" type="line"/>
      <point x="760" y="1013" type="line"/>
      <point x="83" y="1013" type="line"/>
      <point x="83" y="980" type="line"/>
      <point x="735" y="980" type="line"/>
      <point x="735" y="1013" type="line"/>
      <point x="27" y="-33" type="line"/>
      <point x="755" y="-33" type="line"/>
    </contour>
  </outline>
</glyph>
